<svg width="118" height="30" viewBox="0 0 118 30" fill="none" xmlns="http://www.w3.org/2000/svg">
<g clip-path="url(#clip0_19_56)">
<rect width="118" height="30" rx="6" fill="#161616"/>
<path d="M41.3233 11.9H45.7833V12.74H42.1833V15.12H45.6033V15.94H42.1833V19H41.3233V11.9ZM49.2018 19.12C47.7318 19.12 46.7718 18.04 46.7718 16.35C46.7718 14.66 47.7318 13.58 49.2018 13.58C50.6618 13.58 51.6218 14.66 51.6218 16.35C51.6218 18.04 50.6618 19.12 49.2018 19.12ZM47.6518 16.35C47.6518 17.58 48.2218 18.32 49.2018 18.32C50.1718 18.32 50.7418 17.58 50.7418 16.35C50.7418 15.12 50.1718 14.38 49.2018 14.38C48.2218 14.38 47.6518 15.12 47.6518 16.35ZM52.8439 13.7H53.5839L53.6139 14.67C53.7939 14.01 54.1839 13.7 54.8739 13.7H55.3939V14.44H54.8739C54.0639 14.44 53.6839 14.93 53.6839 15.84V19H52.8439V13.7ZM56.3693 11.9H57.2093V16.55L59.7493 13.7H60.8993L58.8193 15.95L60.9993 19H59.9693L58.2393 16.53L57.2093 17.64V19H56.3693V11.9ZM67.0878 11.9C69.2678 11.9 70.4978 13.18 70.4978 15.46C70.4978 17.73 69.2978 19 67.1478 19H64.8878V11.9H67.0878ZM65.7478 18.16H67.0878C68.7578 18.16 69.5978 17.26 69.5978 15.46C69.5978 13.64 68.7578 12.74 67.0878 12.74H65.7478V18.16ZM71.5493 15.26C71.7593 14.23 72.5893 13.58 73.7193 13.58C75.0793 13.58 75.8493 14.38 75.8493 15.8V17.93C75.8493 18.15 75.9493 18.26 76.1693 18.26H76.3893V19H76.0293C75.4893 19 75.0193 18.83 75.0193 18.18C74.7893 18.67 74.2093 19.12 73.3693 19.12C72.3093 19.12 71.4593 18.56 71.4593 17.61C71.4593 16.52 72.2793 16.24 73.4593 16.02L75.0093 15.71C74.9993 14.82 74.5693 14.38 73.7193 14.38C73.0493 14.38 72.5993 14.72 72.4393 15.33L71.5493 15.26ZM72.3393 17.61C72.3393 18.03 72.6993 18.38 73.4793 18.38C74.3393 18.37 75.0293 17.77 75.0293 16.53V16.46L73.7793 16.68C72.9893 16.82 72.3393 16.87 72.3393 17.61ZM77.5732 12.5H78.4132V13.7H79.8232V14.44H78.4132V17.59C78.4132 18.03 78.6232 18.26 79.0432 18.26H79.8032V19H79.0432C78.0932 19 77.5732 18.49 77.5732 17.59V14.44H76.7932V13.7H77.5732V12.5ZM80.7485 15.26C80.9585 14.23 81.7885 13.58 82.9185 13.58C84.2785 13.58 85.0485 14.38 85.0485 15.8V17.93C85.0485 18.15 85.1485 18.26 85.3685 18.26H85.5885V19H85.2285C84.6885 19 84.2185 18.83 84.2185 18.18C83.9885 18.67 83.4085 19.12 82.5685 19.12C81.5085 19.12 80.6585 18.56 80.6585 17.61C80.6585 16.52 81.4785 16.24 82.6585 16.02L84.2085 15.71C84.1985 14.82 83.7685 14.38 82.9185 14.38C82.2485 14.38 81.7985 14.72 81.6385 15.33L80.7485 15.26ZM81.5385 17.61C81.5385 18.03 81.8985 18.38 82.6785 18.38C83.5385 18.37 84.2285 17.77 84.2285 16.53V16.46L82.9785 16.68C82.1885 16.82 81.5385 16.87 81.5385 17.61ZM86.7404 11.9H87.5804V14.4C87.8704 13.9 88.5004 13.58 89.2104 13.58C90.5904 13.58 91.4504 14.65 91.4504 16.35C91.4504 18.05 90.5904 19.12 89.2104 19.12C88.4704 19.12 87.8304 18.78 87.5304 18.24L87.5004 19H86.7404V11.9ZM87.5004 16.35C87.5004 17.56 88.1004 18.32 89.0404 18.32C89.9704 18.32 90.5704 17.56 90.5704 16.35C90.5704 15.12 89.9704 14.34 89.0404 14.34C88.1004 14.34 87.5004 15.12 87.5004 16.35ZM92.5258 15.26C92.7358 14.23 93.5658 13.58 94.6958 13.58C96.0558 13.58 96.8258 14.38 96.8258 15.8V17.93C96.8258 18.15 96.9258 18.26 97.1458 18.26H97.3658V19H97.0058C96.4658 19 95.9958 18.83 95.9958 18.18C95.7658 18.67 95.1858 19.12 94.3458 19.12C93.2858 19.12 92.4358 18.56 92.4358 17.61C92.4358 16.52 93.2558 16.24 94.4358 16.02L95.9858 15.71C95.9758 14.82 95.5458 14.38 94.6958 14.38C94.0258 14.38 93.5758 14.72 93.4158 15.33L92.5258 15.26ZM93.3158 17.61C93.3158 18.03 93.6758 18.38 94.4558 18.38C95.3158 18.37 96.0058 17.77 96.0058 16.53V16.46L94.7558 16.68C93.9658 16.82 93.3158 16.87 93.3158 17.61ZM101.47 15.34C101.35 14.74 100.76 14.38 100.17 14.38C99.5801 14.38 99.1001 14.68 99.1001 15.19C99.1001 15.71 99.7901 15.92 100.37 16.04C101.57 16.27 102.45 16.6 102.45 17.65C102.45 18.68 101.39 19.12 100.38 19.12C99.1301 19.12 98.1701 18.43 98.0901 17.33L98.9701 17.27C99.0801 17.91 99.5901 18.32 100.38 18.32C100.9 18.32 101.57 18.15 101.57 17.6C101.57 16.97 100.82 16.9 100.22 16.76C99.2501 16.54 98.2201 16.26 98.2201 15.23C98.2201 14.22 99.0401 13.58 100.26 13.58C101.31 13.58 102.18 14.25 102.35 15.28L101.47 15.34ZM103.393 16.35C103.393 14.67 104.343 13.58 105.823 13.58C106.993 13.58 108.033 14.35 108.113 16.23L108.123 16.61H104.283C104.363 17.69 104.913 18.32 105.823 18.32C106.383 18.32 106.903 17.99 107.143 17.43L108.043 17.5C107.733 18.5 106.833 19.12 105.823 19.12C104.343 19.12 103.393 18.03 103.393 16.35ZM104.303 15.87H107.203C107.063 14.76 106.463 14.38 105.823 14.38C104.983 14.38 104.443 14.93 104.303 15.87Z" fill="white"/>
<path d="M15.0493 14.9277C15.2296 14.5455 15.7734 14.5455 15.9537 14.9277L18.9693 21.321C19.1257 21.6526 18.8838 22.0343 18.5171 22.0343H12.4859C12.1192 22.0343 11.8773 21.6526 12.0337 21.321L15.0493 14.9277Z" fill="#38B282"/>
<g filter="url(#filter0_d_19_56)">
<path d="M9.3161 8.72497C9.2216 8.23894 9.81903 7.94707 10.1683 8.30864L17.215 15.6041C17.4964 15.8955 17.3459 16.3693 16.952 16.4323L11.4934 17.3053C11.2207 17.3489 10.9569 17.1646 10.9042 16.8935L9.3161 8.72497Z" fill="#38B282"/>
</g>
<g filter="url(#filter1_d_19_56)">
<path d="M21.6839 8.72497C21.7784 8.23894 21.181 7.94707 20.8317 8.30864L13.785 15.6042C13.5036 15.8955 13.6541 16.3693 14.048 16.4323L19.5066 17.3053C19.7793 17.3489 20.0431 17.1646 20.0958 16.8935L21.6839 8.72497Z" fill="url(#paint0_linear_19_56)"/>
</g>
<line x1="31.5" x2="31.5" y2="35" stroke="#2E2E2E"/>
</g>
<rect x="0.5" y="0.5" width="117" height="29" rx="5.5" stroke="#2E2E2E"/>
<defs>
<filter id="filter0_d_19_56" x="-26.2943" y="-31.453" width="107.254" height="108.365" filterUnits="userSpaceOnUse" color-interpolation-filters="sRGB">
<feFlood flood-opacity="0" result="BackgroundImageFix"/>
<feColorMatrix in="SourceAlpha" type="matrix" values="0 0 0 0 0 0 0 0 0 0 0 0 0 0 0 0 0 0 127 0" result="hardAlpha"/>
<feOffset dx="14" dy="10"/>
<feGaussianBlur stdDeviation="24.8"/>
<feComposite in2="hardAlpha" operator="out"/>
<feColorMatrix type="matrix" values="0 0 0 0 0 0 0 0 0 0 0 0 0 0 0 0 0 0 0.25 0"/>
<feBlend mode="normal" in2="BackgroundImageFix" result="effect1_dropShadow_19_56"/>
<feBlend mode="normal" in="SourceGraphic" in2="effect1_dropShadow_19_56" result="shape"/>
</filter>
<filter id="filter1_d_19_56" x="-120.959" y="-114.453" width="277.254" height="278.365" filterUnits="userSpaceOnUse" color-interpolation-filters="sRGB">
<feFlood flood-opacity="0" result="BackgroundImageFix"/>
<feColorMatrix in="SourceAlpha" type="matrix" values="0 0 0 0 0 0 0 0 0 0 0 0 0 0 0 0 0 0 127 0" result="hardAlpha"/>
<feOffset dy="12"/>
<feGaussianBlur stdDeviation="67.3"/>
<feComposite in2="hardAlpha" operator="out"/>
<feColorMatrix type="matrix" values="0 0 0 0 0 0 0 0 0 0 0 0 0 0 0 0 0 0 0.25 0"/>
<feBlend mode="normal" in2="BackgroundImageFix" result="effect1_dropShadow_19_56"/>
<feBlend mode="normal" in="SourceGraphic" in2="effect1_dropShadow_19_56" result="shape"/>
</filter>
<linearGradient id="paint0_linear_19_56" x1="21.996" y1="7.09848" x2="16.193" y2="16.7779" gradientUnits="userSpaceOnUse">
<stop stop-color="#38B282"/>
<stop offset="1" stop-color="#38B282"/>
</linearGradient>
<clipPath id="clip0_19_56">
<rect width="118" height="30" rx="6" fill="white"/>
</clipPath>
</defs>
</svg>
