<svg width="1295" height="454" viewBox="0 0 1295 454" fill="none" xmlns="http://www.w3.org/2000/svg">
<path d="M441.111 343.925C421.461 343.925 405.261 337.1 392.511 323.45L412.986 304.775C421.536 314.375 430.686 319.175 440.436 319.175C445.536 319.175 449.511 318.05 452.361 315.8C455.211 313.55 456.636 310.625 456.636 307.025C456.636 303.725 455.211 301.175 452.361 299.375C449.661 297.425 443.961 295.4 435.261 293.3C421.011 289.85 411.411 285.125 406.461 279.125C401.661 273.125 399.261 265.7 399.261 256.85C399.261 246.35 403.161 237.8 410.961 231.2C418.761 224.45 429.411 221.075 442.911 221.075C452.661 221.075 460.836 222.575 467.436 225.575C474.186 228.575 480.486 233.825 486.336 241.325L464.286 258.2C459.036 249.8 452.136 245.6 443.586 245.6C439.236 245.6 435.711 246.5 433.011 248.3C430.311 249.95 428.961 252.5 428.961 255.95C428.961 258.35 429.936 260.45 431.886 262.25C433.986 263.9 438.261 265.55 444.711 267.2C460.761 271.4 471.711 276.575 477.561 282.725C483.561 288.875 486.561 296.675 486.561 306.125C486.561 313.175 484.536 319.625 480.486 325.475C476.586 331.175 471.186 335.675 464.286 338.975C457.386 342.275 449.661 343.925 441.111 343.925ZM541.824 343.7C533.424 343.7 525.849 341.75 519.099 337.85C512.349 333.8 507.024 328.175 503.124 320.975C499.224 313.625 497.274 305.15 497.274 295.55V224H527.649V288.125C527.649 307.475 535.449 317.15 551.049 317.15C557.949 317.15 563.724 314.75 568.374 309.95C573.024 305 575.349 297.725 575.349 288.125V224H605.724V341H576.249V323.45C573.399 330.35 569.199 335.45 563.649 338.75C558.099 342.05 550.824 343.7 541.824 343.7ZM623.644 224H653.569V242.9C657.019 236 661.669 230.75 667.519 227.15C673.369 223.4 681.169 221.525 690.919 221.525C701.419 221.525 711.094 224.3 719.944 229.85C728.794 235.4 735.769 242.9 740.869 252.35C746.119 261.65 748.744 271.85 748.744 282.95C748.744 294.05 746.119 304.25 740.869 313.55C735.769 322.85 728.794 330.275 719.944 335.825C711.094 341.225 701.419 343.925 690.919 343.925C681.469 343.925 673.744 342.2 667.744 338.75C661.894 335.15 657.319 330.125 654.019 323.675V386H623.644V224ZM653.119 282.95C653.119 289.1 654.469 294.725 657.169 299.825C659.869 304.925 663.694 308.975 668.644 311.975C673.744 314.975 679.519 316.475 685.969 316.475C692.269 316.475 697.819 314.975 702.619 311.975C707.569 308.825 711.394 304.7 714.094 299.6C716.944 294.35 718.369 288.725 718.369 282.725C718.369 276.575 717.019 270.95 714.319 265.85C711.619 260.75 707.794 256.7 702.844 253.7C697.894 250.55 692.269 248.975 685.969 248.975C679.519 248.975 673.744 250.55 668.644 253.7C663.694 256.7 659.869 260.825 657.169 266.075C654.469 271.175 653.119 276.8 653.119 282.95ZM814.517 343.925C804.017 343.925 794.342 341.225 785.492 335.825C776.642 330.275 769.592 322.85 764.342 313.55C759.242 304.25 756.692 294.05 756.692 282.95C756.692 271.85 759.242 261.65 764.342 252.35C769.592 242.9 776.642 235.4 785.492 229.85C794.342 224.3 804.017 221.525 814.517 221.525C824.117 221.525 831.842 223.325 837.692 226.925C843.692 230.525 848.342 235.7 851.642 242.45V224H881.792V341H852.317V321.875C848.867 328.925 844.142 334.4 838.142 338.3C832.292 342.05 824.417 343.925 814.517 343.925ZM787.067 282.725C787.067 288.725 788.417 294.35 791.117 299.6C793.967 304.7 797.792 308.825 802.592 311.975C807.542 314.975 813.167 316.475 819.467 316.475C825.917 316.475 831.617 314.975 836.567 311.975C841.667 308.975 845.567 304.925 848.267 299.825C850.967 294.725 852.317 289.1 852.317 282.95C852.317 276.8 850.967 271.175 848.267 266.075C845.567 260.825 841.667 256.7 836.567 253.7C831.617 250.55 825.917 248.975 819.467 248.975C813.167 248.975 807.542 250.55 802.592 253.7C797.642 256.7 793.817 260.75 791.117 265.85C788.417 270.95 787.067 276.575 787.067 282.725ZM908.39 216.125C908.39 204.275 911.915 194.75 918.965 187.55C926.015 180.35 935.465 176.75 947.315 176.75H959.915V202.625H952.04C943.19 202.625 938.765 207.275 938.765 216.575V224H962.615V249.875H938.765V341H908.39V249.875H891.965V224H908.39V216.125ZM1024.9 343.925C1013.05 343.925 1002.4 341.225 992.951 335.825C983.501 330.275 976.076 322.85 970.676 313.55C965.276 304.1 962.576 293.825 962.576 282.725C962.576 271.625 965.276 261.35 970.676 251.9C976.076 242.45 983.501 235.025 992.951 229.625C1002.4 224.075 1013.05 221.3 1024.9 221.3C1036.75 221.3 1047.4 224.075 1056.85 229.625C1066.3 235.025 1073.73 242.45 1079.13 251.9C1084.53 261.35 1087.23 271.625 1087.23 282.725C1087.23 293.825 1084.53 304.1 1079.13 313.55C1073.73 322.85 1066.3 330.275 1056.85 335.825C1047.4 341.225 1036.75 343.925 1024.9 343.925ZM992.951 282.725C992.951 288.875 994.226 294.5 996.776 299.6C999.476 304.7 1003.23 308.75 1008.03 311.75C1012.98 314.75 1018.6 316.25 1024.9 316.25C1031.2 316.25 1036.75 314.75 1041.55 311.75C1046.5 308.75 1050.25 304.7 1052.8 299.6C1055.5 294.5 1056.85 288.875 1056.85 282.725C1056.85 276.575 1055.5 270.95 1052.8 265.85C1050.1 260.75 1046.35 256.7 1041.55 253.7C1036.75 250.55 1031.2 248.975 1024.9 248.975C1018.6 248.975 1013.05 250.55 1008.25 253.7C1003.45 256.7 999.701 260.75 997.001 265.85C994.301 270.95 992.951 276.575 992.951 282.725ZM1100.67 224H1130.14V246.275C1132.24 237.725 1136.29 231.275 1142.29 226.925C1148.44 222.575 1156.47 220.7 1166.37 221.3V249.875H1162.09C1153.09 249.875 1145.67 252.725 1139.82 258.425C1133.97 263.975 1131.04 271.55 1131.04 281.15V341H1100.67V224ZM1206.85 285.425V341H1176.48V176.75H1206.85V271.25L1250.73 224H1293.93L1238.8 278.45L1294.15 341H1253.88L1206.85 285.425Z" fill="white"/>
<path d="M162.645 257.322C165.413 250.851 174.587 250.851 177.355 257.322L233.703 389.028C235.961 394.307 232.089 400.175 226.348 400.175H113.652C107.911 400.175 104.039 394.307 106.297 389.028L162.645 257.322Z" fill="#38B282"/>
<g filter="url(#filter0_d_19_9)">
<path d="M57.9725 132.011C56.5667 124.039 66.534 119.261 71.8683 125.35L203.337 275.413C207.446 280.102 204.849 287.48 198.709 288.563L96.8693 306.52C92.5182 307.287 88.369 304.382 87.6017 300.031L57.9725 132.011Z" fill="#38B282"/>
</g>
<g filter="url(#filter1_d_19_9)">
<path d="M282.027 132.011C283.433 124.039 273.466 119.262 268.132 125.35L136.663 275.413C132.554 280.102 135.151 287.481 141.291 288.563L243.131 306.52C247.482 307.288 251.631 304.382 252.398 300.031L282.027 132.011Z" fill="url(#paint0_linear_19_9)"/>
</g>
<defs>
<filter id="filter0_d_19_9" x="22.2384" y="82.9911" width="246.69" height="283.252" filterUnits="userSpaceOnUse" color-interpolation-filters="sRGB">
<feFlood flood-opacity="0" result="BackgroundImageFix"/>
<feColorMatrix in="SourceAlpha" type="matrix" values="0 0 0 0 0 0 0 0 0 0 0 0 0 0 0 0 0 0 127 0" result="hardAlpha"/>
<feOffset dx="14" dy="10"/>
<feGaussianBlur stdDeviation="24.8"/>
<feComposite in2="hardAlpha" operator="out"/>
<feColorMatrix type="matrix" values="0 0 0 0 0 0 0 0 0 0 0 0 0 0 0 0 0 0 0.25 0"/>
<feBlend mode="normal" in2="BackgroundImageFix" result="effect1_dropShadow_19_9"/>
<feBlend mode="normal" in="SourceGraphic" in2="effect1_dropShadow_19_9" result="shape"/>
</filter>
<filter id="filter1_d_19_9" x="0.0718689" y="-0.00869751" width="416.69" height="453.252" filterUnits="userSpaceOnUse" color-interpolation-filters="sRGB">
<feFlood flood-opacity="0" result="BackgroundImageFix"/>
<feColorMatrix in="SourceAlpha" type="matrix" values="0 0 0 0 0 0 0 0 0 0 0 0 0 0 0 0 0 0 127 0" result="hardAlpha"/>
<feOffset dy="12"/>
<feGaussianBlur stdDeviation="67.3"/>
<feComposite in2="hardAlpha" operator="out"/>
<feColorMatrix type="matrix" values="0 0 0 0 0 0 0 0 0 0 0 0 0 0 0 0 0 0 0.25 0"/>
<feBlend mode="normal" in2="BackgroundImageFix" result="effect1_dropShadow_19_9"/>
<feBlend mode="normal" in="SourceGraphic" in2="effect1_dropShadow_19_9" result="shape"/>
</filter>
<linearGradient id="paint0_linear_19_9" x1="286.928" y1="103.801" x2="166.816" y2="285.522" gradientUnits="userSpaceOnUse">
<stop stop-color="#38B282"/>
<stop offset="1" stop-color="#38B282"/>
</linearGradient>
</defs>
</svg>
